<svg width="20" height="20" viewBox="0 0 20 20" fill="none" xmlns="http://www.w3.org/2000/svg">
<path d="M17.16 10.98C17.2 10.66 17.23 10.34 17.23 10C17.23 9.66 17.2 9.34 17.16 9.02L19.2701 7.37C19.4601 7.22 19.5101 6.95 19.3901 6.73L17.39 3.27C17.27 3.05 17 2.97 16.78 3.05L14.2899 4.05C13.7699 3.65 13.2098 3.32 12.5998 3.07L12.2198 0.42C12.1898 0.18 11.9798 0 11.7298 0H7.72963C7.47962 0 7.26961 0.18 7.23961 0.42L6.8596 3.07C6.24957 3.32 5.68955 3.66 5.16953 4.05L2.67944 3.05C2.44943 2.96 2.18942 3.05 2.06941 3.27L0.0693343 6.73C-0.0606708 6.95 -0.000668328 7.22 0.189339 7.37L2.29942 9.02C2.25942 9.34 2.22942 9.67 2.22942 10C2.22942 10.33 2.25942 10.66 2.29942 10.98L0.189339 12.63C-0.000668328 12.78 -0.0506704 13.05 0.0693343 13.27L2.06941 16.73C2.18942 16.95 2.45943 17.03 2.67944 16.95L5.16953 15.95C5.68955 16.35 6.24957 16.68 6.8596 16.93L7.23961 19.58C7.26961 19.82 7.47962 20 7.72963 20H11.7298C11.9798 20 12.1898 19.82 12.2198 19.58L12.5998 16.93C13.2098 16.68 13.7699 16.34 14.2899 15.95L16.78 16.95C17.01 17.04 17.27 16.95 17.39 16.73L19.3901 13.27C19.5101 13.05 19.4601 12.78 19.2701 12.63L17.16 10.98ZM9.72971 13.5C7.79963 13.5 6.22957 11.93 6.22957 10C6.22957 8.07 7.79963 6.5 9.72971 6.5C11.6598 6.5 13.2298 8.07 13.2298 10C13.2298 11.93 11.6598 13.5 9.72971 13.5Z" fill="white"/>
</svg>
